# xmcd
#
# Track frame offsets:
#	150
#	17850
#	31457
#	41891
#	59528
#	73229
#	86781
#	98912
#	110921
#	126622
#	142378
#	157730
#	168917
#	184593
#	198719
#	211992
#	230232
#	241638
#	251498
#	269599
#	287961
#	304922
#	315976
#
# Disc length: 4403 seconds
#
# Revision: 1
# Processed by: cddbd v1.5.2PL0 Copyright (c) Steve Scherf et al.
# Submitted via: EasyCDDAExtractor 6.0.0.1
#
DISCID=6b113117
DTITLE=Valentin elizalde - El gallo de Oro
DYEAR=1900
DGENRE=
TTITLE0=El venadito
TTITLE1=La mas deseada
TTITLE2=Ya viene amaneciendo
TTITLE3=Volveré amar
TTITLE4=Sin verte
TTITLE5=Paloma errante
TTITLE6=Vete ya
TTITLE7=Vuelve cariñito
TTITLE8=Gracias por que volviste
TTITLE9=Satisfaccion
TTITLE10=La papa
TTITLE11=Pedida y dada
TTITLE12=El sinaloense
TTITLE13=Mi gusto es
TTITLE14=Amor que muere
TTITLE15=El pavido navido
TTITLE16=Eslabón por eslabón
TTITLE17=La sauza y la palma
TTITLE18=Acá entre nos
TTITLE19=Amor eterno
TTITLE20=Mariquita
TTITLE21=Se parece a ti
TTITLE22=El espejo
EXTD=
EXTT0=
EXTT1=
EXTT2=
EXTT3=
EXTT4=
EXTT5=
EXTT6=
EXTT7=
EXTT8=
EXTT9=
EXTT10=
EXTT11=
EXTT12=
EXTT13=
EXTT14=
EXTT15=
EXTT16=
EXTT17=
EXTT18=
EXTT19=
EXTT20=
EXTT21=
EXTT22=
PLAYORDER=
